<?xml version="1.0" encoding="UTF-8"?>
<!DOCTYPE svg PUBLIC "-//W3C//DTD SVG 1.1//EN" "http://www.w3.org/Graphics/SVG/1.1/DTD/svg11.dtd">
<svg xmlns="http://www.w3.org/2000/svg" version="1.1" width="512px" height="512px" style="shape-rendering:geometricPrecision; text-rendering:geometricPrecision; image-rendering:optimizeQuality; fill-rule:evenodd; clip-rule:evenodd" xmlns:xlink="http://www.w3.org/1999/xlink">
<g><path style="opacity:0.975" fill="#006e25" d="M 34.5,-0.5 C 138.833,-0.5 243.167,-0.5 347.5,-0.5C 365.484,4.65165 376.984,16.3183 382,34.5C 383.293,93.4799 383.96,152.48 384,211.5C 401.5,194 419,176.5 436.5,159C 449.833,150.333 463.167,150.333 476.5,159C 486,168.5 495.5,178 505,187.5C 507.464,191.434 509.631,195.434 511.5,199.5C 511.5,204.833 511.5,210.167 511.5,215.5C 509.631,219.566 507.464,223.566 505,227.5C 464.667,267.167 424.333,306.833 384,346.5C 383.944,389.855 383.278,433.188 382,476.5C 376.984,494.682 365.484,506.348 347.5,511.5C 243.167,511.5 138.833,511.5 34.5,511.5C 16.4913,506.158 4.82461,494.491 -0.5,476.5C -0.5,329.167 -0.5,181.833 -0.5,34.5C 4.83333,16.5 16.5,4.83333 34.5,-0.5 Z M 44.5,29.5 C 142.167,29.3333 239.834,29.5 337.5,30C 346.333,30.8333 351.167,35.6667 352,44.5C 352.667,110.833 352.667,177.167 352,243.5C 326,269.5 300,295.5 274,321.5C 261.273,349.287 248.273,376.954 235,404.5C 229.459,413.714 230.626,421.881 238.5,429C 242.262,431.156 246.262,431.823 250.5,431C 280.953,417.274 311.286,403.274 341.5,389C 345,385.5 348.5,382 352,378.5C 352.667,407.833 352.667,437.167 352,466.5C 351.167,475.333 346.333,480.167 337.5,481C 239.833,481.667 142.167,481.667 44.5,481C 38.3135,480.162 33.8135,476.996 31,471.5C 30.3333,327.5 30.3333,183.5 31,39.5C 33.9825,34.0048 38.4825,30.6715 44.5,29.5 Z M 455.5,183.5 C 464.425,190.756 472.759,198.756 480.5,207.5C 472.541,214.958 464.708,222.625 457,230.5C 448.985,222.652 441.152,214.652 433.5,206.5C 440.855,198.813 448.188,191.146 455.5,183.5 Z M 280.5,382.5 C 286.898,368.149 293.398,353.816 300,339.5C 337,302.5 374,265.5 411,228.5C 418.667,236.167 426.333,243.833 434,251.5C 434.667,252.167 434.667,252.833 434,253.5C 396.861,289.639 360.028,326.139 323.5,363C 309.352,369.99 295.019,376.49 280.5,382.5 Z"/></g>
<g><path style="opacity:0.993" fill="#006e25" d="M 73.5,96.5 C 152.167,96.3333 230.834,96.5 309.5,97C 318.475,102.152 320.975,109.652 317,119.5C 315.235,122.473 312.735,124.64 309.5,126C 230.833,126.667 152.167,126.667 73.5,126C 64.5253,120.848 62.0253,113.348 66,103.5C 68.0147,100.588 70.5147,98.255 73.5,96.5 Z"/></g>
<g><path style="opacity:0.991" fill="#006e25" d="M 73.5,176.5 C 136.168,176.333 198.834,176.5 261.5,177C 269.915,181.348 272.748,188.181 270,197.5C 268.5,201.667 265.667,204.5 261.5,206C 198.833,206.667 136.167,206.667 73.5,206C 64.5253,200.848 62.0253,193.348 66,183.5C 68.0147,180.588 70.5147,178.255 73.5,176.5 Z"/></g>
<g><path style="opacity:0.989" fill="#006e25" d="M 73.5,256.5 C 120.168,256.333 166.835,256.5 213.5,257C 221.915,261.348 224.748,268.181 222,277.5C 220.5,281.667 217.667,284.5 213.5,286C 166.833,286.667 120.167,286.667 73.5,286C 64.5253,280.848 62.0253,273.348 66,263.5C 68.0147,260.588 70.5147,258.255 73.5,256.5 Z"/></g>
</svg>
